<svg xmlns="http://www.w3.org/2000/svg" width="1030.623" height="756.766" viewBox="0 0 1030.623 756.766">
  <g id="Group_17" data-name="Group 17" transform="translate(351.623 -2148.617)">
    <g id="Group_16" data-name="Group 16">
      <g id="truck" transform="translate(-351.623 2448.373)">
        <g id="Group_6" data-name="Group 6" transform="translate(90.745 377.795)">
          <g id="Group_5" data-name="Group 5">
            <path id="Path_3" data-name="Path 3" d="M100.843,344.692h-.136a12.626,12.626,0,1,0,.136,0Z" transform="translate(-88.218 -344.692)" fill="#1f9255"/>
          </g>
        </g>
        <g id="Group_8" data-name="Group 8" transform="translate(198.125 377.795)">
          <g id="Group_7" data-name="Group 7">
            <path id="Path_4" data-name="Path 4" d="M164.972,344.692h-.134a12.625,12.625,0,1,0,.134,0Z" transform="translate(-152.347 -344.692)" fill="#1f9255"/>
          </g>
        </g>
        <g id="Group_10" data-name="Group 10" transform="translate(641.069 377.795)">
          <g id="Group_9" data-name="Group 9">
            <path id="Path_5" data-name="Path 5" d="M429.5,344.692h-.134a12.625,12.625,0,1,0,.134,0Z" transform="translate(-416.879 -344.692)" fill="#1f9255"/>
          </g>
        </g>
        <g id="Group_12" data-name="Group 12" transform="translate(0 0)">
          <g id="Group_11" data-name="Group 11">
            <path id="Path_6" data-name="Path 6" d="M858.8,345.208,841.917,328.25,807.9,225.757a12.619,12.619,0,0,0-3.8-24.632H682.43V146.338a26.066,26.066,0,0,0-25.981-26.093H95.981A26.067,26.067,0,0,0,70,146.338V442.913a26.066,26.066,0,0,0,25.981,26.093h14.286v27.822a26.066,26.066,0,0,0,25.981,26.093h28.919a66.107,66.107,0,0,0,118.728,26.3,66.109,66.109,0,0,0,118.73-26.3h255.9a66.22,66.22,0,0,0,131.287-12.613c0-.289-.018-.573-.022-.861h54.577a26.066,26.066,0,0,0,25.981-26.093V373.19A39.391,39.391,0,0,0,858.8,345.208ZM165.167,497.7H136.248a.866.866,0,0,1-.864-.868V469.008h42.941A66.407,66.407,0,0,0,165.167,497.7Zm65.039,53.924a41.308,41.308,0,0,1-.256-82.614h.516a41.308,41.308,0,0,1-.26,82.614Zm107.382,0a41.308,41.308,0,0,1-.258-82.614h.516a41.308,41.308,0,0,1-.258,82.614ZM658.522,497.7H402.627a66.4,66.4,0,0,0-13.159-28.692H575.911a12.613,12.613,0,0,0,0-25.226H95.981a.866.866,0,0,1-.864-.868V146.338a.866.866,0,0,1,.864-.868H656.447a.866.866,0,0,1,.864.868V443.783h-27.7a12.613,12.613,0,0,0,0,25.226H671.68A66.388,66.388,0,0,0,658.522,497.7ZM817.991,335.93H736.983a.866.866,0,0,1-.864-.868V280.271h63.4Zm-94.43,215.692a41.308,41.308,0,0,1-.256-82.614h.258c.028,0,.057,0,.087-.005a41.31,41.31,0,0,1-.089,82.619Zm121.667-68.264a.866.866,0,0,1-.864.868H784.5a66.341,66.341,0,0,0-60.938-40.448c-.087,0-.171.007-.258.007H682.43V227.216a.866.866,0,0,1,.864-.868h98.328l9.524,28.7H723.561A12.586,12.586,0,0,0,711,267.658v67.4a26.066,26.066,0,0,0,25.981,26.093H839.161l1.882,1.89a14.29,14.29,0,0,1,4.184,10.146v30.15H830.941a12.613,12.613,0,0,0,0,25.226h14.286Z" transform="translate(-70 -120.245)" fill="#1f9255"/>
          </g>
        </g>
        <g id="Group_14" data-name="Group 14" transform="translate(69.967 269.682)">
          <g id="Group_13" data-name="Group 13" transform="translate(0)">
            <path id="Path_7" data-name="Path 7" d="M600.137,280.567H144.622a12.558,12.558,0,1,0,0,25.117H600.137a12.558,12.558,0,1,0,0-25.117Z" transform="translate(-132.064 -280.567)" fill="#1f9255"/>
          </g>
        </g>
      </g>
      <path id="Subtraction_1" data-name="Subtraction 1" d="M370.456,756.766h-.517V731.483h.11a354.6,354.6,0,0,0,155.578-35.93,351.142,351.142,0,0,0,68.767-44.205,354.727,354.727,0,0,0,58.341-61.07l-26.386-26.4a12.611,12.611,0,0,1-3.7-8.917V507.488l-49.19-98.241a12.653,12.653,0,0,1-1.261-5.638v-43.7l-27.534-18.39-45.04,11.263a12.466,12.466,0,0,1-8.022-.643L403.317,314.3a12.613,12.613,0,0,1-7.568-9.8l-12.613-88.29a12.614,12.614,0,0,1,3.569-10.708l37.838-37.838a12.612,12.612,0,0,1,8.918-3.7h75.676a12.592,12.592,0,0,1,10.43,5.613l22.2,33.3,67.189,11.2,62.055-20.685a356.708,356.708,0,0,0-37.94-50.691l-28.706,19.146a12.522,12.522,0,0,1-9.473,1.867L531.828,151.1a9.375,9.375,0,0,1-1.514-.4l-34.357-11.44-46.895,11.717a12.389,12.389,0,0,1-7.038-.277l-37.838-12.613a12.614,12.614,0,0,1-7.3-17.594L422.11,70.039a12.612,12.612,0,0,1,11.28-6.975h47.545l23.044-11.5A352.184,352.184,0,0,0,261.41,42.543l12.828,8.551,73,12.172a12.751,12.751,0,0,1,1.869.464,12.614,12.614,0,0,1,8.019,15.934L344.516,117.5a12.485,12.485,0,0,1-7.971,7.971l-33.412,11.15-35.442,59.065A12.648,12.648,0,0,1,263.378,200l-63.064,37.838a12.6,12.6,0,0,1-4.7,1.678l-77.467,11.062v21.681l21.53,21.53a12.688,12.688,0,0,1,3.575,7.182H111.185L96.612,286.4a12.61,12.61,0,0,1-3.7-8.917V239.643a12.613,12.613,0,0,1,10.847-12.475l85.766-12.246,58.183-34.913,36.223-60.364a12.626,12.626,0,0,1,6.824-5.462l31.847-10.633L328.574,85.7,267.452,75.513a12.514,12.514,0,0,1-4.932-1.942L232.249,53.39A353.938,353.938,0,0,0,46.641,237.511l19.032,57.1,9.541,6.362h-34L32.64,275.261c-2.579,8.444-4.871,17.094-6.811,25.709H0c2.29-10.859,5.1-21.758,8.346-32.394,3.291-10.78,7.119-21.571,11.378-32.075l2.889-7.051A378.286,378.286,0,0,1,370.453,0h.057A384.44,384.44,0,0,1,409.2,1.959,377.818,377.818,0,0,1,746.889,339.752a384.035,384.035,0,0,1-.011,77.37A377.838,377.838,0,0,1,409.137,754.811,384.469,384.469,0,0,1,370.456,756.766ZM546.971,315.314a12.573,12.573,0,0,1,7.006,2.124l37.839,25.225a12.59,12.59,0,0,1,5.612,10.494v47.475l49.19,98.24a12.674,12.674,0,0,1,1.262,5.638V549.74l19.43,19.418a352.576,352.576,0,0,0,16.377-353.4l-69.7,23.233a12.5,12.5,0,0,1-6.054.479l-75.677-12.613a12.656,12.656,0,0,1-8.426-5.436L502.39,189.192H438.683L409,218.857l10.708,75.021,77.834,33.4L543.886,315.7A12.636,12.636,0,0,1,546.971,315.314Zm-50.449-201.8a12.385,12.385,0,0,1,3.989.659l37.094,12.348,57.173,11.44,20.508-13.672a354.3,354.3,0,0,0-82.1-59.142l-43.64,21.82a12.684,12.684,0,0,1-5.627,1.324H441.256l-15.236,30.473,20.559,6.848,46.895-11.717A12.385,12.385,0,0,1,496.522,113.512Z" transform="translate(-69.836 2148.617)" fill="#1f9255"/>
    </g>
    <text id="AMS" transform="translate(-242 2675)" fill="#1f9255" font-size="180" font-family="Lora-Bold, Lora" font-weight="700"><tspan x="0" y="0">AMS</tspan></text>
  </g>
</svg>
